Coordinates
version=1
nRows=11
nColumns=40
inDegrees=yes

Units are S.I. units (second, meters, Newtons, ...)
If the header above contains a line with 'inDegrees', this indicates whether rotational values are in degrees (yes) or radians (no).

endheader
time	pelvis_tilt	pelvis_list	pelvis_rotation	pelvis_tx	pelvis_ty	pelvis_tz	hip_flexion_r	hip_adduction_r	hip_rotation_r	knee_angle_r	knee_angle_r_beta	ankle_angle_r	subtalar_angle_r	mtp_angle_r	hip_flexion_l	hip_adduction_l	hip_rotation_l	knee_angle_l	knee_angle_l_beta	ankle_angle_l	subtalar_angle_l	mtp_angle_l	lumbar_extension	lumbar_bending	lumbar_rotation	arm_flex_r	arm_add_r	arm_rot_r	elbow_flex_r	pro_sup_r	wrist_flex_r	wrist_dev_r	arm_flex_l	arm_add_l	arm_rot_l	elbow_flex_l	pro_sup_l	wrist_flex_l	wrist_dev_l
      0.44500000	     -4.64811599	     -5.91789341	      0.40476920	     -0.11154891	      0.93133496	      0.28764030	      9.55537576	     10.87935975	     -3.76575549	     12.95187367	      0.22605284	     -0.94005494	    -22.82829212	      0.00000000	     24.08555906	    -18.83200281	    -13.64221803	     66.73011759	      1.16466026	      2.99962092	     -7.97456744	      0.00000000	     -0.82871369	      5.79000534	      2.61813703	     44.21189615	    -16.10342876	     44.21189615	     75.26879665	     44.93987209	      0.00000000	      0.00000000	     44.21189615	    -16.10342876	     44.21189615	     75.26879665	     44.93987209	      0.00000000	      0.00000000
      0.45000000	     -4.65393166	     -5.81766256	      0.24638466	     -0.10522744	      0.93181250	      0.28756709	      8.94195010	     10.79153363	     -3.70706636	     12.63920806	      0.22059580	     -0.74827763	    -22.50259298	      0.00000000	     24.71123248	    -18.62671248	    -13.86190323	     65.98760804	      1.15170103	      3.67633681	     -7.69134002	      0.00000000	     -0.84157031	      5.69135233	      2.61527561	     44.21258428	    -16.10183641	     44.21258428	     75.26803756	     44.94034280	      0.00000000	      0.00000000	     44.21258428	    -16.10183641	     44.21258428	     75.26803756	     44.94034280	      0.00000000	      0.00000000
      0.45500000	     -4.68295239	     -5.83867971	      0.07487954	     -0.09892146	      0.93211910	      0.28756176	      8.43967894	     10.83255801	     -3.79296462	     12.48572766	      0.21791706	     -0.61691240	    -22.37668525	      0.00000000	     25.37779784	    -18.59262698	    -14.09806351	     65.22524592	      1.13839530	      4.09999239	     -7.58847207	      0.00000000	     -0.81709154	      5.71555177	      2.58825920	     44.21277297	    -16.10140002	     44.21277297	     75.26782975	     44.94047121	      0.00000000	      0.00000000	     44.21277297	    -16.10140002	     44.21277297	     75.26782975	     44.94047121	      0.00000000	      0.00000000
      0.46000000	     -4.11474293	     -5.30626428	     -0.16802343	     -0.09245261	      0.93367065	      0.28774536	      7.07580226	     10.29790258	     -3.47711435	     11.98444778	      0.20916807	     -0.20301747	    -21.65555785	      0.00000000	     24.98632836	    -17.94455442	    -14.74117322	     63.95650429	      1.11625158	      4.76792471	     -7.13512849	      0.00000000	     -1.51098095	      5.02041881	      2.57159287	     44.21564670	    -16.09476057	     44.21564670	     75.26467684	     44.94239882	      0.00000000	      0.00000000	     44.21564670	    -16.09476057	     44.21564670	     75.26467684	     44.94239882	      0.00000000	      0.00000000
      0.46500000	     -4.13676040	     -5.23341318	     -0.30436912	     -0.08608426	      0.93391874	      0.28766576	      6.48385644	     10.22806305	     -3.40875161	     11.68258654	      0.20389960	      0.01195749	    -21.36679695	      0.00000000	     25.56621459	    -17.75865197	    -14.96519236	     63.05102042	      1.10044790	      5.31960235	     -6.81406012	      0.00000000	     -1.48928865	      4.94332121	      2.57636519	     44.21636691	    -16.09309922	     44.21636691	     75.26389086	     44.94287289	      0.00000000	      0.00000000	     44.21636691	    -16.09309922	     44.21636691	     75.26389086	     44.94287289	      0.00000000	      0.00000000
      0.47000000	     -3.76792153	     -4.92340022	     -0.54437066	     -0.07970085	      0.93490455	      0.28786818	      5.45014433	      9.91366946	     -3.23095726	     11.36832966	      0.19841478	      0.28931845	    -20.95195533	      0.00000000	     25.47301945	    -17.36459021	    -15.50131776	     61.81150520	      1.07881428	      5.71190090	     -6.53747366	      0.00000000	     -1.94728638	      4.52549827	      2.60359692	     44.21887607	    -16.08731886	     44.21887607	     75.26116513	     44.94449739	      0.00000000	      0.00000000	     44.21887607	    -16.08731886	     44.21887607	     75.26116513	     44.94449739	      0.00000000	      0.00000000
      0.47500000	     -3.84430010	     -5.02237620	     -0.68899050	     -0.07346007	      0.93484292	      0.28780953	      5.02493743	     10.01813345	     -3.27105178	     11.26098689	      0.19654130	      0.42953931	    -20.86433613	      0.00000000	     26.14142097	    -17.38657565	    -15.69119592	     60.88539207	      1.06265056	      6.00253108	     -6.39128449	      0.00000000	     -1.87584955	      4.63304790	      2.56249227	     44.21906214	    -16.08689075	     44.21906214	     75.26096385	     44.94461615	      0.00000000	      0.00000000	     44.21906214	    -16.08689075	     44.21906214	     75.26096385	     44.94461615	      0.00000000	      0.00000000
      0.48000000	     -3.57960207	     -4.71497995	     -0.87453299	     -0.06703061	      0.93553158	      0.28792419	      4.02815686	      9.69487781	     -3.00445879	     10.78872163	      0.18829871	      0.76962320	    -20.36163457	      0.00000000	     26.14932052	    -16.94806251	    -16.13041785	     59.58970999	      1.04003664	      6.55279772	     -5.86598373	      0.00000000	     -2.22014969	      4.22958028	      2.60024441	     44.22045958	    -16.08367715	     44.22045958	     75.25945493	     44.94550162	      0.00000000	      0.00000000	     44.22045958	    -16.08367715	     44.22045958	     75.25945493	     44.94550162	      0.00000000	      0.00000000
      0.48500000	     -3.64724120	     -4.83213681	     -1.02810494	     -0.06077696	      0.93535074	      0.28787795	      3.60003841	      9.81611653	     -3.01918028	     10.69925772	      0.18673727	      0.90606500	    -20.27179968	      0.00000000	     26.76093276	    -16.98566210	    -16.33257906	     58.58364291	      1.02247746	      6.77575613	     -5.71796728	      0.00000000	     -2.16143340	      4.34818282	      2.55093077	     44.22063861	    -16.08326581	     44.22063861	     75.25926216	     44.94561404	      0.00000000	      0.00000000	     44.22063861	    -16.08326581	     44.22063861	     75.25926216	     44.94561404	      0.00000000	      0.00000000
      0.49000000	     -3.06649399	     -4.20605843	     -1.35955806	     -0.05437122	      0.93665930	      0.28834703	      2.25263394	      9.15124733	     -2.51310121	     10.22247841	      0.17841591	      1.25127537	    -19.76945177	      0.00000000	     26.10640680	    -16.21879488	    -17.11676203	     56.80957555	      0.99151414	      7.03329191	     -5.39451102	      0.00000000	     -2.86898674	      3.53630610	      2.76758155	     44.22373754	    -16.07615397	     44.22373754	     75.25593952	     44.94752876	      0.00000000	      0.00000000	     44.22373754	    -16.07615397	     44.22373754	     75.25593952	     44.94752876	      0.00000000	      0.00000000
      0.49500000	     -2.91471492	     -4.07688996	     -1.57161521	     -0.04805838	      0.93688870	      0.28854129	      1.48073261	      9.00887057	     -2.30540940	      9.93120810	      0.17333228	      1.48207396	    -19.50025122	      0.00000000	     26.24028145	    -15.99110446	    -17.52412814	     55.45426198	      0.96785946	      7.28846971	     -5.06601977	      0.00000000	     -3.07475951	      3.33455639	      2.86835431	     44.22610769	    -16.07072678	     44.22610769	     75.25341764	     44.94895372	      0.00000000	      0.00000000	     44.22610769	    -16.07072678	     44.22610769	     75.25341764	     44.94895372	      0.00000000	      0.00000000
